<?xml version="1.0" encoding="UTF-8" standalone="no"?>
<!DOCTYPE svg PUBLIC "-//W3C//DTD SVG 1.1//EN" "http://www.w3.org/Graphics/SVG/1.1/DTD/svg11.dtd">
<svg width="100%" height="100%" viewBox="0 0 1024 1024" version="1.1" xmlns="http://www.w3.org/2000/svg" xmlns:xlink="http://www.w3.org/1999/xlink" xml:space="preserve" xmlns:serif="http://www.serif.com/" style="fill-rule:evenodd;clip-rule:evenodd;stroke-linejoin:round;stroke-miterlimit:2;">
    <g transform="matrix(5.51359,3.5104,-3.5104,5.51359,337.03,-4391.38)">
        <path d="M409.956,665.157C406.03,665.157 403.249,663.838 401.615,661.201C399.981,658.564 399.585,655.576 400.425,652.237C400.865,650.65 401.36,648.937 401.911,647.096C402.462,645.256 403.034,643.429 403.629,641.617C404.223,639.805 404.834,638.032 405.461,636.296C406.087,634.561 406.599,633.063 406.997,631.803C404.691,631.785 400.746,632.007 395.163,632.469C389.579,632.931 384.355,633.337 379.489,633.688C375.649,634.003 372.296,633.457 369.43,632.048C366.563,630.64 365.13,628.809 365.13,626.556C365.13,623.796 366.314,621.559 368.683,619.846C371.051,618.133 373.461,617.181 375.911,616.989C377.717,616.605 379.759,616.195 382.036,615.758C384.314,615.322 386.608,614.899 388.918,614.491C391.228,614.083 393.478,613.67 395.668,613.252C397.859,612.833 399.749,612.466 401.34,612.151C400.177,610.459 397.933,608.012 394.606,604.81C391.28,601.607 388.194,598.366 385.351,595.087C383.348,592.642 382.346,590.259 382.346,587.937C382.346,585.648 383.283,583.712 385.158,582.13C387.032,580.547 389.37,579.756 392.172,579.756C393.982,579.756 395.763,580.109 397.514,580.816C399.266,581.522 400.88,582.54 402.357,583.869C405.374,586.536 408.353,589.105 411.291,591.575C414.23,594.046 417.196,596.502 420.192,598.944C421.691,595.575 423.294,592.316 425,589.168C426.706,586.019 428.571,582.771 430.597,579.423C431.722,577.482 433.266,575.826 435.229,574.455C437.193,573.084 439.498,572.398 442.145,572.398C445.871,572.398 448.6,573.644 450.332,576.136C452.065,578.627 452.435,581.568 451.443,584.958C450.844,586.794 450.111,588.849 449.242,591.123C448.373,593.397 447.509,595.771 446.652,598.246C445.794,600.721 444.88,603.067 443.911,605.284C445.513,605.215 448.174,604.901 451.894,604.342C455.615,603.782 459.457,603.289 463.422,602.861C467.386,602.434 470.55,602.22 472.913,602.22C476.552,602.22 479.457,602.792 481.629,603.937C483.8,605.081 484.886,606.859 484.886,609.271C484.886,611.245 483.999,613.268 482.225,615.34C480.451,617.411 477.942,618.717 474.696,619.257C470.558,620.061 466.38,620.929 462.164,621.862C457.947,622.795 453.648,623.742 449.267,624.702C450.672,626.199 453.066,628.483 456.45,631.555C459.833,634.627 462.945,637.645 465.785,640.609C466.868,641.659 467.822,642.887 468.647,644.293C469.473,645.698 469.885,647.098 469.885,648.493C469.885,650.467 468.986,652.246 467.188,653.828C465.389,655.411 463.088,656.202 460.286,656.202C458.722,656.202 457.004,655.936 455.132,655.405C453.259,654.874 451.484,654.022 449.807,652.849C446.88,650.269 443.764,647.784 440.46,645.393C437.157,643.002 434.007,640.665 431.012,638.382C430.111,640.017 428.679,642.92 426.718,647.092C424.756,651.263 422.742,655.102 420.674,658.609C419.747,660.391 418.34,661.928 416.454,663.22C414.568,664.511 412.402,665.157 409.956,665.157Z" style="fill:url(#_Linear1);fill-rule:nonzero;"/>
    </g>
    <defs>
        <linearGradient id="_Linear1" x1="0" y1="0" x2="1" y2="0" gradientUnits="userSpaceOnUse" gradientTransform="matrix(81.4145,72.324,-56.0193,63.0605,385.482,581.819)"><stop offset="0" style="stop-color:rgb(40,39,38);stop-opacity:1"/><stop offset="1" style="stop-color:rgb(16,15,15);stop-opacity:1"/></linearGradient>
    </defs>
</svg>
